<svg width="21" height="21" viewBox="0 0 21 21" fill="none" xmlns="http://www.w3.org/2000/svg">
<path fill-rule="evenodd" clip-rule="evenodd" d="M10.5 12.0347L16.545 18.7498H4.45502L10.5 12.0347Z" fill="white"/>
<path fill-rule="evenodd" clip-rule="evenodd" d="M5.55774 15.1359C4.15645 13.8108 3.34994 11.9842 3.34994 10.0291C3.34994 6.12615 6.5511 2.96221 10.4999 2.96221C14.4488 2.96221 17.6499 6.12615 17.6499 10.0291C17.6499 11.9842 16.8434 13.8108 15.4421 15.1359L16.2026 15.9215C17.8186 14.3933 18.7499 12.2839 18.7499 10.0291C18.7499 5.5257 15.0563 1.875 10.4999 1.875C5.94359 1.875 2.24994 5.5257 2.24994 10.0291C2.24994 12.2839 3.1813 14.3933 4.79729 15.9215L5.55774 15.1359Z" fill="white"/>
<path fill-rule="evenodd" clip-rule="evenodd" d="M7.33187 13.3008C6.43346 12.4512 5.91659 11.2806 5.91659 10.0272C5.91659 7.52529 7.96862 5.49712 10.4999 5.49712C13.0312 5.49712 15.0833 7.52529 15.0833 10.0272C15.0833 11.2806 14.5664 12.4512 13.668 13.3008L14.4284 14.0864C15.5415 13.0337 16.1833 11.5804 16.1833 10.0272C16.1833 6.92484 13.6387 4.40991 10.4999 4.40991C7.3611 4.40991 4.81659 6.92484 4.81659 10.0272C4.81659 11.5804 5.4583 13.0337 6.57141 14.0864L7.33187 13.3008Z" fill="white"/>
<path fill-rule="evenodd" clip-rule="evenodd" d="M9.10605 11.4657C8.71052 11.0916 8.4833 10.577 8.4833 10.0253C8.4833 8.92443 9.38619 8.03203 10.5 8.03203C11.6137 8.03203 12.5166 8.92443 12.5166 10.0253C12.5166 10.577 12.2894 11.0916 11.8939 11.4657L12.6543 12.2512C13.2646 11.6742 13.6166 10.8768 13.6166 10.0253C13.6166 8.32398 12.2213 6.94482 10.5 6.94482C8.77868 6.94482 7.3833 8.32398 7.3833 10.0253C7.3833 10.8768 7.73537 11.6742 8.3456 12.2512L9.10605 11.4657Z" fill="white"/>
</svg>
