<svg width="17" height="19" viewBox="0 0 17 19" fill="none" xmlns="http://www.w3.org/2000/svg">
<path d="M15.5461 2.82001C14.6754 1.83815 13.5063 1.25785 12.2707 1.19419C11.0352 1.13052 9.82328 1.58815 8.87544 2.47631C8.76641 2.56828 8.63508 2.62131 8.49863 2.62846C8.36135 2.62399 8.22893 2.57069 8.12061 2.47631C7.1732 1.58764 5.96141 1.12968 4.72587 1.19335C3.49032 1.25702 2.32139 1.83767 1.45116 2.82001C0.515227 3.86606 -0.000144958 5.25716 -0.000144958 6.73657C-0.000144958 8.21598 0.515227 9.60708 1.41956 10.6151L6.84312 17.7105C7.04749 17.9785 7.30146 18.1937 7.5875 18.3412C7.87353 18.4888 8.18481 18.5652 8.49985 18.5652C8.81488 18.5652 9.12617 18.4888 9.4122 18.3412C9.69823 18.1937 9.95221 17.9785 10.1566 17.7105L15.5473 10.6531C16.009 10.14 16.3752 9.52968 16.6245 8.85741C16.8738 8.18514 17.0014 7.4643 16.9998 6.73657C17.0009 6.0088 16.873 5.28801 16.6235 4.61579C16.3739 3.94357 16.0078 3.33323 15.5461 2.82001V2.82001Z" fill="white"/>
</svg>
