<svg width="18" height="20" viewBox="0 0 18 20" fill="none" xmlns="http://www.w3.org/2000/svg">
<path d="M16.4606 2.96843C15.5386 1.93489 14.3008 1.32405 12.9925 1.25704C11.6843 1.19003 10.4011 1.67174 9.39752 2.60664C9.28208 2.70345 9.14302 2.75927 8.99855 2.7668C8.85319 2.76209 8.71298 2.70599 8.59829 2.60664C7.59515 1.6712 6.31208 1.18913 5.00386 1.25616C3.69563 1.32318 2.45794 1.93439 1.53652 2.96843C0.545532 4.06953 -0.000156403 5.53385 -0.000156403 7.09112C-0.000156403 8.64839 0.545532 10.1127 1.50306 11.1738L7.24565 18.6427C7.46205 18.9247 7.73096 19.1512 8.03382 19.3066C8.33668 19.4619 8.66627 19.5423 8.99984 19.5423C9.3334 19.5423 9.663 19.4619 9.96586 19.3066C10.2687 19.1512 10.5376 18.9247 10.754 18.6427L16.4619 11.2138C16.9508 10.6737 17.3384 10.0312 17.6024 9.32359C17.8664 8.61594 18.0015 7.85715 17.9998 7.09112C18.0009 6.32505 17.8655 5.56632 17.6013 4.85872C17.3371 4.15112 16.9494 3.50867 16.4606 2.96843V2.96843Z" fill="#191414"/>
</svg>
