<svg width="22" height="21" viewBox="0 0 22 21" fill="none" xmlns="http://www.w3.org/2000/svg">
<path d="M4.12637 15.75H17.8764C18.6326 15.75 19.2514 15.1594 19.2514 14.4375V3.9375C19.2514 3.21562 18.6326 2.625 17.8764 2.625H4.12637C3.37012 2.625 2.75137 3.21562 2.75137 3.9375V14.4375C2.75137 15.1594 3.37012 15.75 4.12637 15.75V15.75ZM4.12637 3.9375H17.8764V14.4375H4.12637V3.9375V3.9375ZM21.3139 18.375H0.6875C0.309375 18.375 0 18.6703 0 19.0312C0 19.3922 0.309375 19.6875 0.6875 19.6875H21.3139C21.692 19.6875 22.0014 19.3922 22.0014 19.0312C22.0014 18.6703 21.692 18.375 21.3139 18.375V18.375Z" fill="white"/>
</svg>
