<svg width="22" height="21" viewBox="0 0 22 21" fill="none" xmlns="http://www.w3.org/2000/svg">
<path d="M17.9512 1.3125L17.047 2.32248C19.2339 4.25772 20.6109 7.01364 20.6109 10.0767C20.6109 13.1397 19.2325 15.8956 17.047 17.8309L17.9498 18.8408C19.2257 17.7288 20.2449 16.3752 20.9423 14.8663C21.6396 13.3573 21.9999 11.7262 22 10.077C22.0001 8.42772 21.6402 6.79655 20.943 5.28751C20.2459 3.77847 19.227 2.42468 17.9512 1.3125V1.3125ZM14.8005 4.83352L13.8978 5.8435C14.4867 6.39604 14.9545 7.05502 15.2737 7.78199C15.593 8.50896 15.7574 9.28935 15.7572 10.0776C15.7571 10.8659 15.5925 11.6462 15.273 12.3731C14.9535 13.1 14.4855 13.7588 13.8964 14.3112L14.7991 15.3211C16.2413 13.9974 17.1441 12.139 17.1441 10.078C17.1441 8.017 16.2427 6.15721 14.8005 4.83352V4.83352ZM0 6.10559V14.0477H3.88838L11.0938 18.0188V2.13451L3.88838 6.10559H0ZM9.70708 4.42715V15.7262L4.26002 12.7241H1.38673V7.42928H4.26002L9.70708 4.42715Z" fill="white"/>
</svg>
