<svg width="18" height="20" viewBox="0 0 18 20" fill="none" xmlns="http://www.w3.org/2000/svg">
<path d="M3.37612 15H14.6261C15.2449 15 15.7511 14.4375 15.7511 13.75V3.75C15.7511 3.0625 15.2449 2.5 14.6261 2.5H3.37612C2.75737 2.5 2.25112 3.0625 2.25112 3.75V13.75C2.25112 14.4375 2.75737 15 3.37612 15V15ZM3.37612 3.75H14.6261V13.75H3.37612V3.75V3.75ZM17.4386 17.5H0.5625C0.253125 17.5 0 17.7812 0 18.125C0 18.4687 0.253125 18.75 0.5625 18.75H17.4386C17.748 18.75 18.0011 18.4687 18.0011 18.125C18.0011 17.7812 17.748 17.5 17.4386 17.5V17.5Z" fill="#191414"/>
</svg>
