<svg width="20" height="20" viewBox="0 0 20 20" fill="none" xmlns="http://www.w3.org/2000/svg">
<path d="M16.3192 1.25L15.4973 2.21188C17.4853 4.05497 18.7372 6.67966 18.7372 9.59683C18.7372 12.514 17.4841 15.1387 15.4973 16.9818L16.318 17.9437C17.478 16.8846 18.4045 15.5954 19.0384 14.1583C19.6724 12.7213 19.9999 11.1678 20 9.5971C20.0001 8.0264 19.6729 6.4729 19.0391 5.03572C18.4054 3.59854 17.4791 2.30922 16.3192 1.25V1.25ZM13.455 4.60335L12.6343 5.56524C13.1697 6.09146 13.595 6.71907 13.8852 7.41142C14.1755 8.10377 14.3249 8.847 14.3248 9.59772C14.3246 10.3484 14.175 11.0916 13.8845 11.7839C13.5941 12.4761 13.1687 13.1036 12.6331 13.6297L13.4538 14.5916C14.7648 13.3309 15.5855 11.5609 15.5855 9.59809C15.5855 7.63524 14.7661 5.86401 13.455 4.60335V4.60335ZM0 5.81485V13.3788H3.53489L10.0853 17.1608V2.03287L3.53489 5.81485H0ZM8.82461 4.21633V14.9773L3.87275 12.1181H1.26066V7.07551H3.87275L8.82461 4.21633Z" fill="#191414"/>
</svg>
