<svg width="21" height="21" viewBox="0 0 21 21" fill="none" xmlns="http://www.w3.org/2000/svg">
<path d="M7.21875 5.90625H13.125V7.875L17.7187 5.25L13.125 2.625V4.59375H7.21875C3.9375 4.59375 1.3125 7.21875 1.3125 10.5C1.3125 11.2875 1.44375 12.075 1.8375 12.8625L3.01875 12.2063C2.75625 11.6813 2.625 11.1562 2.625 10.5C2.625 8.00625 4.725 5.90625 7.21875 5.90625ZM19.1625 8.1375L17.9812 8.79375C18.2437 9.31875 18.375 9.84375 18.375 10.5C18.375 12.9937 16.275 15.0938 13.7812 15.0938H7.875V13.125L3.28125 15.75L7.875 18.375V16.4062H13.7812C17.0625 16.4062 19.6875 13.7812 19.6875 10.5C19.6875 9.7125 19.5562 8.925 19.1625 8.1375Z" fill="white"/>
</svg>
