<svg width="20" height="20" viewBox="0 0 20 20" fill="none" xmlns="http://www.w3.org/2000/svg">
<path d="M6.875 5.625H12.5V7.5L16.875 5L12.5 2.5V4.375H6.875C3.75 4.375 1.25 6.875 1.25 10C1.25 10.75 1.375 11.5 1.75 12.25L2.875 11.625C2.625 11.125 2.5 10.625 2.5 10C2.5 7.625 4.5 5.625 6.875 5.625ZM18.25 7.75L17.125 8.375C17.375 8.875 17.5 9.375 17.5 10C17.5 12.375 15.5 14.375 13.125 14.375H7.5V12.5L3.125 15L7.5 17.5V15.625H13.125C16.25 15.625 18.75 13.125 18.75 10C18.75 9.25 18.625 8.5 18.25 7.75Z" fill="#191414"/>
</svg>
