<svg width="20" height="20" viewBox="0 0 20 20" fill="none" xmlns="http://www.w3.org/2000/svg">
<path d="M5.56506 8.28409L6.4041 7.32955C5.08561 5.77841 3.1678 4.94318 1.24999 4.94318V6.13636C2.80821 6.13636 4.36643 6.85227 5.4452 8.04545L5.56506 8.28409ZM14.5548 13.892C13.1164 13.892 11.7979 13.2955 10.7192 12.3409L9.99999 13.2955C11.1986 14.4886 12.8767 15.0852 14.5548 15.0852V16.875L18.75 14.4886L14.5548 12.1023V13.892ZM14.5548 6.73295V8.52273L18.75 6.13636L14.5548 3.75V5.53977C12.637 5.53977 10.7192 6.375 9.52054 7.92614L5.4452 12.5795C4.36643 13.7727 2.80821 14.4886 1.24999 14.4886V15.6818C3.1678 15.6818 5.08561 14.8466 6.28424 13.2955L10.3596 8.64205C11.4383 7.44886 12.9966 6.73295 14.5548 6.73295Z" fill="#191414"/>
</svg>
