<svg width="20" height="21" viewBox="0 0 20 21" fill="none" xmlns="http://www.w3.org/2000/svg">
<path d="M5.56506 8.6983L6.4041 7.69602C5.08561 6.06733 3.1678 5.19034 1.24999 5.19034V6.44318C2.80821 6.44318 4.36643 7.19489 5.4452 8.44773L5.56506 8.6983ZM14.5548 14.5866C13.1164 14.5866 11.7979 13.9602 10.7192 12.958L9.99999 13.9602C11.1986 15.2131 12.8767 15.8395 14.5548 15.8395V17.7187L18.75 15.2131L14.5548 12.7074V14.5866ZM14.5548 7.0696V8.94886L18.75 6.44318L14.5548 3.9375V5.81676C12.637 5.81676 10.7192 6.69375 9.52054 8.32244L5.4452 13.2085C4.36643 14.4614 2.80821 15.2131 1.24999 15.2131V16.4659C3.1678 16.4659 5.08561 15.5889 6.28424 13.9602L10.3596 9.07415C11.4383 7.82131 12.9966 7.0696 14.5548 7.0696Z" fill="white"/>
</svg>
